<svg version="1.0" xmlns="http://www.w3.org/2000/svg" width="133.333" height="133.333" viewBox="0 0 100 100"><path d="M35.6 8.5c-2.2 2-5.4 3.7-7.5 4-6.2 1-7.6 2.1-9.1 6.5-.9 2.7-2.7 5.1-4.9 6.8-5.4 3.9-5.9 4.8-5.3 9.8.4 3.6-.1 5.5-2.2 9.4l-2.7 5 2.7 5c2.1 3.9 2.6 5.8 2.2 9.4-.6 5-.1 5.9 5.3 9.8 2.2 1.7 4 4.1 4.9 6.8 1.5 4.4 2.9 5.5 9.1 6.5 2 .3 5.4 2.1 7.7 4.1l4.1 3.5 5.1-1.5c4.4-1.3 5.6-1.3 10 0l5.1 1.5 4.3-3.6c2.6-2.1 6-3.8 8.3-4.2 5.6-.9 6.8-1.7 8.3-6.3.9-2.7 2.7-5.1 4.9-6.8 5.4-3.9 5.9-4.8 5.3-9.8-.4-3.6.1-5.5 2.2-9.4l2.7-5-2.7-5c-2.1-3.9-2.6-5.8-2.2-9.4.6-5 .1-5.9-5.3-9.8-2.2-1.7-4-4.1-4.9-6.8-1.5-4.6-2.7-5.4-8.3-6.3-2.3-.4-5.7-2.1-8.3-4.2l-4.3-3.6L55 6.4c-4.4 1.3-5.6 1.3-9.8.1-2.6-.8-4.9-1.5-5.2-1.4-.3 0-2.3 1.5-4.4 3.4zM71 31c0 1-21.6 34.9-23.4 36.7-.8.9-3.2-.8-10-7.1-7.6-7-8.6-8.3-7.3-9.4 1.3-1.1 2.6-.4 8.2 4.7 3.7 3.4 7.1 6.1 7.5 6.1.4 0 3.2-3.7 6.1-8.3 14.4-22.4 16-24.6 17.4-24 .8.3 1.5.9 1.5 1.3z"/></svg>