<?xml version="1.0" standalone="no"?>
<!DOCTYPE svg PUBLIC "-//W3C//DTD SVG 20010904//EN"
 "http://www.w3.org/TR/2001/REC-SVG-20010904/DTD/svg10.dtd">
<svg version="1.0" xmlns="http://www.w3.org/2000/svg"
 width="96.000000pt" height="96.000000pt" viewBox="0 0 96.000000 96.000000"
 preserveAspectRatio="xMidYMid meet">

<g transform="translate(0.000000,96.000000) scale(0.100000,-0.100000)"
fill="#fff" stroke="none">
<path d="M457 834 c-4 -4 -7 -107 -7 -228 l0 -220 -53 52 c-54 53 -83 64 -94
36 -7 -18 152 -184 177 -184 25 0 184 166 177 184 -11 28 -42 17 -92 -34 l-50
-51 -5 223 c-5 215 -6 223 -25 226 -12 2 -24 0 -28 -4z"/>
<path d="M110 371 c-13 -25 -13 -105 1 -153 18 -66 28 -68 369 -68 341 0 351
2 369 68 22 78 9 172 -24 172 -22 0 -30 -20 -35 -100 l-5 -75 -305 0 -305 0
-5 75 c-3 41 -9 81 -13 88 -12 18 -35 15 -47 -7z"/>
</g>
</svg>
