<svg version="1.0" xmlns="http://www.w3.org/2000/svg" width="128" height="128" viewBox="0 0 96 96"><g fill="#fff"><path d="M45.7 12.6c-.4.4-.7 10.7-.7 22.8v22l-5.3-5.2c-5.4-5.3-8.3-6.4-9.4-3.6C29.6 50.4 45.5 67 48 67s18.4-16.6 17.7-18.4c-1.1-2.8-4.2-1.7-9.2 3.4l-5 5.1-.5-22.3c-.5-21.5-.6-22.3-2.5-22.6-1.2-.2-2.4 0-2.8.4z"/><path d="M11 58.9c-1.3 2.5-1.3 10.5.1 15.3C12.9 80.8 13.9 81 48 81s35.1-.2 36.9-6.8c2.2-7.8.9-17.2-2.4-17.2-2.2 0-3 2-3.5 10l-.5 7.5h-61L17 67c-.3-4.1-.9-8.1-1.3-8.8-1.2-1.8-3.5-1.5-4.7.7z"/></g></svg>