<svg xmlns="http://www.w3.org/2000/svg" width="200" viewBox="0 0 150 150" height="200" version="1.0"><path fill="#fff" d="M106.969.375H42.285C16.922.375 0 18.527 0 44.527v60.946c0 26.023 16.883 44.152 42.285 44.152h64.676c25.41 0 42.293-18.129 42.293-44.152V44.527c0-26.023-16.883-44.152-42.285-44.152ZM51.28 31.703c-10.71 0-19.406 8.7-19.406 19.414 0 10.719 8.695 19.414 19.406 19.414 10.719 0 19.414-8.695 19.414-19.414 0-10.719-8.695-19.414-19.414-19.414Zm72.824 41.324c-10.761-6.472-23.078-3.144-30.972 7.075-1.195 1.546-2.172 2.968-3.543 5.132l-1.524 2.446-2.238 3.562c-3.414 5.258-5.66 7.68-8.863 9.41-3.598 1.953-5.942 1.504-10.867-1.617l-4.93-3.183c-1.906-1.176-3.395-1.961-5.133-2.692-11.46-4.8-20.21.309-29.758 12.133l-3.793 4.676-13.718 16.656a5.608 5.608 0 1 0 8.633 7.16 3100.61 3100.61 0 0 0 5.23-6.312l13.48-16.47c6.141-7.276 10.586-9.593 15.59-7.5 1.156.485 2.246 1.071 3.774 2.02l2.746 1.774 3.27 2.066c7.35 4.34 13.398 5.176 20.82 1.153 6.023-3.258 9.367-7.329 14.879-16.254l2.921-4.633c.34-.516.657-.977.965-1.41l.938-1.262c4.62-5.98 10.777-7.644 16.308-4.32 3.657 2.207 6.52 4.539 11.524 9.293l5.219 5.023c1 .957 1.832 1.742 2.609 2.457l2.285 2.047a5.613 5.613 0 0 0 7.914-.55 5.606 5.606 0 0 0-.55-7.915 98.104 98.104 0 0 1-2.844-2.57l-5.657-5.43c-6.375-6.12-9.847-9.031-14.715-11.965Zm0 0" fill-rule="evenodd"/></svg>