<?xml version="1.0" standalone="no"?>
<!DOCTYPE svg PUBLIC "-//W3C//DTD SVG 20010904//EN"
 "http://www.w3.org/TR/2001/REC-SVG-20010904/DTD/svg10.dtd">
<svg version="1.0" xmlns="http://www.w3.org/2000/svg"
 width="64.000000pt" height="64.000000pt" viewBox="0 0 64.000000 64.000000"
 preserveAspectRatio="xMidYMid meet">

<g transform="translate(0.000000,64.000000) scale(0.100000,-0.100000)"
fill="#fff" stroke="none">
<path d="M130 562 c0 -23 -19 -42 -42 -42 -10 0 -18 -4 -18 -10 0 -5 8 -10 18
-10 23 0 42 -19 42 -42 0 -10 5 -18 10 -18 6 0 10 8 10 18 0 23 19 42 42 42
10 0 18 5 18 10 0 6 -8 10 -18 10 -23 0 -42 19 -42 42 0 10 -4 18 -10 18 -5 0
-10 -8 -10 -18z"/>
<path d="M295 555 l-20 -20 20 -20 20 -20 20 20 20 20 -20 20 -20 20 -20 -20z"/>
<path d="M277 352 c-114 -114 -207 -214 -207 -223 0 -19 51 -69 71 -69 8 0
108 94 223 209 188 188 207 210 197 229 -11 20 -58 62 -70 62 -3 0 -100 -93
-214 -208z m233 142 c12 -13 3 -25 -55 -84 -65 -66 -70 -69 -87 -53 -18 16
-16 20 49 85 37 37 70 68 74 68 4 0 12 -7 19 -16z"/>
<path d="M474 218 c-7 -24 -18 -35 -42 -42 -18 -5 -32 -12 -32 -16 0 -4 14
-11 32 -16 24 -7 35 -18 42 -42 11 -41 21 -41 32 0 7 24 18 35 42 42 18 5 32
12 32 16 0 4 -14 11 -32 16 -24 7 -35 18 -42 42 -5 18 -12 32 -16 32 -4 0 -11
-14 -16 -32z"/>
</g>
</svg>
