<svg version="1.0" xmlns="http://www.w3.org/2000/svg" width="85.333" height="85.333" viewBox="0 0 64 64"><g fill="#fff"><path d="M13 7.8c0 2.3-1.9 4.2-4.2 4.2-1 0-1.8.4-1.8 1 0 .5.8 1 1.8 1 2.3 0 4.2 1.9 4.2 4.2 0 1 .5 1.8 1 1.8.6 0 1-.8 1-1.8 0-2.3 1.9-4.2 4.2-4.2 1 0 1.8-.5 1.8-1 0-.6-.8-1-1.8-1-2.3 0-4.2-1.9-4.2-4.2 0-1-.4-1.8-1-1.8-.5 0-1 .8-1 1.8zM29.5 8.5l-2 2 2 2 2 2 2-2 2-2-2-2-2-2-2 2zM27.7 28.8C16.3 40.2 7 50.2 7 51.1 7 53 12.1 58 14.1 58c.8 0 10.8-9.4 22.3-20.9 18.8-18.8 20.7-21 19.7-22.9-1.1-2-5.8-6.2-7-6.2-.3 0-10 9.3-21.4 20.8zM51 14.6c1.2 1.3.3 2.5-5.5 8.4-6.5 6.6-7 6.9-8.7 5.3-1.8-1.6-1.6-2 4.9-8.5 3.7-3.7 7-6.8 7.4-6.8.4 0 1.2.7 1.9 1.6zM47.4 42.2c-.7 2.4-1.8 3.5-4.2 4.2-1.8.5-3.2 1.2-3.2 1.6 0 .4 1.4 1.1 3.2 1.6 2.4.7 3.5 1.8 4.2 4.2 1.1 4.1 2.1 4.1 3.2 0 .7-2.4 1.8-3.5 4.2-4.2 1.8-.5 3.2-1.2 3.2-1.6 0-.4-1.4-1.1-3.2-1.6-2.4-.7-3.5-1.8-4.2-4.2-.5-1.8-1.2-3.2-1.6-3.2-.4 0-1.1 1.4-1.6 3.2z"/></g></svg>