<?xml version="1.0" standalone="no"?>
<!DOCTYPE svg PUBLIC "-//W3C//DTD SVG 20010904//EN"
 "http://www.w3.org/TR/2001/REC-SVG-20010904/DTD/svg10.dtd">
<svg version="1.0" xmlns="http://www.w3.org/2000/svg"
 width="64.000000pt" height="64.000000pt" viewBox="0 0 64.000000 64.000000"
 preserveAspectRatio="xMidYMid meet">

<g transform="translate(0.000000,64.000000) scale(0.100000,-0.100000)"
fill="#fff" stroke="none">
<path d="M431 412 c-6 -11 -6 -24 0 -35 9 -16 -2 -17 -156 -17 -96 0 -175 -4
-186 -10 -23 -13 -24 -33 -3 -54 13 -13 44 -16 185 -16 158 0 169 -1 160 -17
-12 -23 4 -53 28 -53 19 0 111 91 111 110 0 19 -92 110 -111 110 -10 0 -23 -8
-28 -18z"/>
</g>
</svg>
