<?xml version="1.0" standalone="no"?>
<!DOCTYPE svg PUBLIC "-//W3C//DTD SVG 20010904//EN"
 "http://www.w3.org/TR/2001/REC-SVG-20010904/DTD/svg10.dtd">
<svg version="1.0" xmlns="http://www.w3.org/2000/svg"
 width="96.000000pt" height="96.000000pt" viewBox="0 0 96.000000 96.000000"
 preserveAspectRatio="xMidYMid meet">

<g transform="translate(0.000000,96.000000) scale(0.100000,-0.100000)"
fill="#fff" stroke="none">
<path d="M350 772 c-73 -69 -111 -112 -106 -120 4 -8 34 -12 82 -12 l74 0 0
-168 c0 -117 4 -172 12 -180 16 -16 120 -16 136 0 8 8 12 63 12 180 l0 168 74
0 c48 0 78 4 82 12 9 15 -211 228 -235 228 -9 0 -68 -49 -131 -108z"/>
<path d="M92 148 c-16 -16 -15 -43 2 -57 9 -8 121 -10 391 -9 347 3 379 4 389
21 8 12 8 22 0 35 -10 16 -42 17 -390 20 -287 2 -383 -1 -392 -10z"/>
</g>
</svg>
