<svg width="152" height="148" fill="none" xmlns="http://www.w3.org/2000/svg"><style>@keyframes dash{to{stroke-dashoffset:100}}</style><path d="M0 0h152v148H0z"/><path d="m75.766 7.233 47.128 19.188 19.757 46.893-19.188 47.128-46.892 19.757-47.129-19.188L9.686 74.119 28.873 26.99 75.766 7.233Z" fill="#000"/><path transform="rotate(-.21 8.326 7.17)" stroke="#000" stroke-width="2" style="animation-name:dash;stroke-dasharray:10;animation-duration:4s;animation-direction:reverse;animation-timing-function:linear;animation-iteration-count:infinite" d="M8.326 7.169h136.305v132.904H8.326z"/><path fill="#fff" stroke="#000" stroke-width="2" d="m1.129 1.526 13-.114.114 13-13 .113zM136.64 2.486l13-.114.114 13-13 .113zM137.558 133.181l13-.114.114 13-13 .113zM1.223 131.82l13-.114.114 13-13 .113z"/></svg>