<?xml version="1.0" standalone="no"?>
<!DOCTYPE svg PUBLIC "-//W3C//DTD SVG 20010904//EN"
 "http://www.w3.org/TR/2001/REC-SVG-20010904/DTD/svg10.dtd">
<svg version="1.0" xmlns="http://www.w3.org/2000/svg"
 width="100.000000pt" height="100.000000pt" viewBox="0 0 100.000000 100.000000"
 preserveAspectRatio="xMidYMid meet">

<g transform="translate(0.000000,100.000000) scale(0.100000,-0.100000)"
fill="#000000" stroke="none">
<path d="M356 915 c-22 -20 -54 -37 -75 -40 -62 -10 -76 -21 -91 -65 -9 -27
-27 -51 -49 -68 -54 -39 -59 -48 -53 -98 4 -36 -1 -55 -22 -94 l-27 -50 27
-50 c21 -39 26 -58 22 -94 -6 -50 -1 -59 53 -98 22 -17 40 -41 49 -68 15 -44
29 -55 91 -65 20 -3 54 -21 77 -41 l41 -35 51 15 c44 13 56 13 100 0 l51 -15
43 36 c26 21 60 38 83 42 56 9 68 17 83 63 9 27 27 51 49 68 54 39 59 48 53
98 -4 36 1 55 22 94 l27 50 -27 50 c-21 39 -26 58 -22 94 6 50 1 59 -53 98
-22 17 -40 41 -49 68 -15 46 -27 54 -83 63 -23 4 -57 21 -83 42 l-43 36 -51
-15 c-44 -13 -56 -13 -98 -1 -26 8 -49 15 -52 14 -3 0 -23 -15 -44 -34z m354
-225 c0 -10 -216 -349 -234 -367 -8 -9 -32 8 -100 71 -76 70 -86 83 -73 94 13
11 26 4 82 -47 37 -34 71 -61 75 -61 4 0 32 37 61 83 144 224 160 246 174 240
8 -3 15 -9 15 -13z"/>
</g>
</svg>
