<svg version="1.0" xmlns="http://www.w3.org/2000/svg" width="128" height="128" viewBox="0 0 96 96"><g fill="#F21361"><path d="M42.5 9.4c-3.6 1.6-6 4.2-7.4 7.8-1 2.7-1.1 2.7-11.8 3-10.8.3-10.8.3-10.8 2.8v2.5l30.3.3L73 26l-.4 2.3C71.5 33 69.9 55.1 70.5 56c.7 1.2 4.2 1.3 4.9.2.2-.4.9-6.4 1.6-13.2 1.5-16.4 1.6-16.8 4.3-17.2 1.6-.2 2.2-1 2.2-2.8 0-2.5-.1-2.5-10.8-3L62 19.5l-1.8-3.4c-3.3-6.6-11.3-9.7-17.7-6.7zm11.3 7.3 2.7 2.8-4.2.3c-2.4.2-6.2.2-8.5 0l-4.3-.3 2.7-2.8C44 14.9 46 14 48 14s4 .9 5.8 2.7zM19.2 35.7c-1.1 2.3 3 44 4.6 47C26.3 87.3 29.6 88 48 88c18.8 0 21.8-.7 24.3-5.8 2.1-4.1 3-14.7 1.3-16.1-3.1-2.6-5.6 1.7-5.6 10 0 5.3-2.1 5.9-20.3 5.9-16.2 0-16.7-.1-18.1-2.3-.9-1.4-2-9.4-3.1-21.7-1-10.7-2.2-20.5-2.6-21.8-1-2.6-3.5-2.9-4.7-.5z"/></g></svg>