<?xml version="1.0" standalone="no"?>
<!DOCTYPE svg PUBLIC "-//W3C//DTD SVG 20010904//EN"
 "http://www.w3.org/TR/2001/REC-SVG-20010904/DTD/svg10.dtd">
<svg version="1.0" xmlns="http://www.w3.org/2000/svg"
 width="96.000000pt" height="96.000000pt" viewBox="0 0 96.000000 96.000000"
 preserveAspectRatio="xMidYMid meet">

<g transform="translate(0.000000,96.000000) scale(0.100000,-0.100000)"
fill="#F21361" stroke="none">
<path d="M425 866 c-36 -16 -60 -42 -74 -78 -10 -27 -11 -27 -118 -30 -108 -3
-108 -3 -108 -28 l0 -25 303 -3 302 -2 -4 -23 c-11 -47 -27 -268 -21 -277 7
-12 42 -13 49 -2 2 4 9 64 16 132 15 164 16 168 43 172 16 2 22 10 22 28 0 25
-1 25 -108 30 l-107 5 -18 34 c-33 66 -113 97 -177 67z m113 -73 l27 -28 -42
-3 c-24 -2 -62 -2 -85 0 l-43 3 27 28 c18 18 38 27 58 27 20 0 40 -9 58 -27z"/>
<path d="M192 603 c-11 -23 30 -440 46 -470 25 -46 58 -53 242 -53 188 0 218
7 243 58 21 41 30 147 13 161 -31 26 -56 -17 -56 -100 0 -53 -21 -59 -203 -59
-162 0 -167 1 -181 23 -9 14 -20 94 -31 217 -10 107 -22 205 -26 218 -10 26
-35 29 -47 5z"/>
</g>
</svg>
