<svg width="152" height="148" fill="none" xmlns="http://www.w3.org/2000/svg"><path d="m23.244 10.098 11.515 4.688 4.827 11.458-4.688 11.515-11.457 4.827-11.515-4.688-4.828-11.457 4.689-11.515 11.457-4.828ZM47 10h73v4H47z" fill="#000"/><path fill="#000" d="M47 10h73v4H47zM47 17h88v4H47zM47 24h71v4H47zM47 31h96v4H47zM47 38h81v4H47z"/><rect x="8" y="52" width="79" height="32" rx="6" stroke="#000" stroke-width="2"/><path fill="#000" d="M7 94h33v7H7zM7 104h49v7H7z"/><rect x="63" y="102" width="79" height="32" rx="7" stroke="#000" stroke-width="2"/></svg>