<svg width="152" height="148" fill="none" xmlns="http://www.w3.org/2000/svg"><style>.selection-effect{stroke-dasharray:10;animation-duration:20s;animation-name:selectionEffect;animation-timing-function:linear;animation-iteration-count:infinite}</style><g clip-path="url(#clip0)"><path d="m43.572 74.095 9.085 3.976L78.838 63.79l-15.79 18.42L85.68 92.517a2.633 2.633 0 0 0 3.682-2.237l2.632-39.473a2.637 2.637 0 0 0-3.748-2.558L43.507 69.3a2.637 2.637 0 0 0 .066 4.795ZM57.784 98l12.57-6.095-12.57-5.863V98Z" fill="#000"/><path class="selection-effect" stroke="#000" stroke-width="2" d="m-5.707 150.293 157-157M12.293 162.293l157-157M39.293 181.293l157-157M12.293 162.293l157-157"/></g><defs><clipPath id="clip0"><path fill="#fff" d="M0 0h152v148H0z"/></clipPath></defs></svg>